<svg width="32" height="32" viewBox="0 0 32 32" fill="none" xmlns="http://www.w3.org/2000/svg">
<path d="M21.3327 29.3333C17.6567 29.3333 14.666 26.3427 14.666 22.6667C14.666 18.9907 17.6567 16 21.3327 16C25.0087 16 27.9993 18.9907 27.9993 22.6667C27.9993 26.3427 25.0087 29.3333 21.3327 29.3333ZM21.3327 17.3333C18.3913 17.3333 15.9993 19.7253 15.9993 22.6667C15.9993 25.608 18.3913 28 21.3327 28C24.274 28 26.666 25.608 26.666 22.6667C26.666 19.7253 24.274 17.3333 21.3327 17.3333Z" fill="white"/>
<path d="M29.9998 32C29.8292 32 29.6585 31.9346 29.5278 31.8053L25.4372 27.7146C25.1772 27.4546 25.1772 27.032 25.4372 26.772C25.6972 26.512 26.1199 26.512 26.3799 26.772L30.4705 30.8626C30.7305 31.1226 30.7305 31.5453 30.4705 31.8053C30.3412 31.9346 30.1705 32 29.9998 32Z" fill="white"/>
<path d="M12.0007 29.3333C6.11932 29.3333 1.33398 24.548 1.33398 18.6667C1.33398 11.8267 11.086 0.695994 11.5007 0.225327C11.754 -0.0626731 12.2473 -0.0613397 12.5007 0.225327C12.7247 0.47866 18.0207 6.50799 20.8807 12.4307C21.0407 12.7627 20.902 13.16 20.57 13.32C20.2407 13.4813 19.8407 13.3413 19.6807 13.0093C17.4007 8.29199 13.4007 3.35466 12.0007 1.69199C9.99798 4.07333 2.66732 13.1667 2.66732 18.6667C2.66732 23.812 6.85398 28 12.0007 28C12.4407 28 12.8233 27.972 13.1727 27.916C13.5367 27.8507 13.878 28.1027 13.938 28.4653C13.9967 28.828 13.7513 29.172 13.3873 29.2307C12.9673 29.3 12.5127 29.3333 12.0007 29.3333Z" fill="white"/>
</svg>
