<svg width="244" height="282" viewBox="0 0 244 282" fill="none" xmlns="http://www.w3.org/2000/svg">
<g clip-path="url(#clip0)">
<path d="M87.9002 228.9C87.3002 229.1 86.8002 229.3 86.1002 229.5C83.5002 230.1 80.1002 230.5 76.3002 231.1C76.0002 231.1 75.6002 231.2 75.3002 231.2C74.7002 231.8 74.7002 236 75.5002 236.8C75.7002 236.8 76.0002 236.8 76.3002 236.8C78.3002 236.8 82.3002 236.6 87.5002 236.4C88.7002 236.4 89.9002 236.3 91.2002 236.3C94.1002 236.2 97.3002 236.2 100.6 236.2C110.8 236.2 120.5 236.8 124.3 236.8C124.4 236.8 124.4 236.7 124.5 236.7C126.5 236.7 128.2 236.8 129.5 236.8C130.1 236.2 130.5 231.8 129.7 231C124.9 230.4 120.7 230 117.7 229.2C112.1 227.8 110.9 226.2 110.3 219C109.9 208.8 110.1 193.5 110.1 170.6C110.1 154.2 110.1 143.4 110.2 136.1C110.4 136.1 110.5 136.1 110.7 136.3C117.7 153 147.8 220 152.8 236.8C153.6 237 158 236.8 158.6 236.4C165.4 217.1 198.3 148.9 203.7 136.7C204.1 136.3 204.5 136.3 204.7 136.7C205.1 154.8 205.7 206.9 205.5 220.2C205.5 224.4 204.5 227.6 200.1 228.8C197.5 229.6 194.1 230.2 189.3 231C188.5 231.8 188.7 236 189.3 236.8C194.5 236.6 204.9 236.2 216 236.2C228.2 236.2 237.7 236.8 242.5 236.8C243.3 235.6 243.5 232 242.7 231C237.9 230.4 234.5 230 231.7 229.4C225.7 227.8 224.5 225 223.9 218C222.9 204.2 221.3 140.6 221.7 128.1C221.7 123.9 223.1 121.3 227.3 120.1C230.3 119.3 234.1 118.9 240.3 117.9C241.1 117.1 241.1 112.7 240.3 112.3C231.7 112.3 224.5 112.9 204.8 112.9C204.4 116.3 203.2 119.3 201.4 123.5C192.8 143.4 165.9 198.9 162.5 205.2C162.3 205.6 161.9 205.6 161.7 205.4C158.5 199.8 135.2 150.4 123.6 124.5C121.4 119.9 120.4 117.1 119.8 112.9C117.4 112.9 115.2 112.9 113.1 112.9L113.2 112.7C111.1 112.7 109 112.8 106.8 112.8C95.1002 112.6 88.5002 112.3 83.4002 112.3C83.3002 112.3 83.3002 112.4 83.2002 112.5C80.0002 112.4 77.4002 112.3 76.1002 112.3C75.5002 112.9 74.9002 116.9 75.7002 117.9C79.7002 118.3 82.9002 118.9 85.5002 119.5C91.1002 120.7 92.3002 123.1 92.7002 130.1C93.1002 136.3 92.9002 150 92.9002 173C92.9002 194.7 92.7002 211.1 92.3002 217.9C91.8002 224.8 91.0002 227.4 87.9002 228.9Z" fill="url(#paint0_linear)"/>
<path d="M120.2 186.2C122.6 187 125.4 187.2 128.8 187.2C135.6 187.2 142.8 185.8 149.9 182.2C160.3 177.2 171.2 165.7 171.2 147.3C171.2 134.1 165.4 125.4 158.8 120.2C151 114 138.9 112.6 132.1 112.6C125.1 112.6 119.2 112.7 113 112.9L111.4 117.2L111.5 121C111.7 120.8 111.9 120.7 112 120.5C113.4 119.7 118.4 119.5 120.4 119.5C143.3 119.5 152.5 132.9 152.5 151.4C152.5 162.8 149.5 172.1 140.3 177.3C136.3 179.3 132.3 180.3 126.3 180.3C123.3 180.3 120.3 180.1 118.5 179.7C118.1 179.9 117.7 180.7 117.7 181.5C117.8 182.3 119 185.4 120.2 186.2Z" fill="url(#paint1_linear)"/>
<path d="M110.1 136.2C110.3 136.2 110.4 136.2 110.6 136.4C113.7 143.8 121.5 161.4 129.6 180C133.9 179.7 137.1 178.7 140.3 177.1C142.5 175.9 144.3 174.4 145.8 172.8C138.1 156.5 129.3 137.6 123.5 124.6C122.5 122.6 121.8 120.9 121.2 119.3C120.9 119.3 120.7 119.3 120.4 119.3C118.4 119.3 113.4 119.5 112 120.3C111.4 120.7 110.6 121.7 110.4 123.1C110.3 125.4 110.2 129.1 110.1 136.2Z" fill="url(#paint2_linear)"/>
<path fill-rule="evenodd" clip-rule="evenodd" d="M20.6001 208.3C30.2001 206.6 37.4001 206.9 47.1001 200.3C59.4001 191.9 57.9001 184.6 58.7001 172C61.6001 173.9 65.1001 180 66.1001 184.6C67.9001 193 62.7001 200.6 59.3001 207C58.1001 209.1 56.8001 211.2 55.9001 213.5C54.1001 217.9 53.2001 225.4 54.6001 230.6C55.7001 227.2 51.6001 216.8 68.7001 201.6C74.4001 196.5 75.2001 194.6 74.6001 185.9C74.5001 184.4 74.1001 183.7 74.0001 181.8L74.5001 182.2C74.9001 182.5 74.7001 182.3 75.1001 182.7C77.2001 184.7 79.2001 186.9 82.7001 187.8C80.9001 185.3 79.7001 184.2 78.3001 180.5C76.1001 174.4 75.3001 168.9 70.6001 164.5C69.0001 163 65.7001 160.6 63.1001 160.4C64.1001 160.8 69.4001 165.1 68.5001 167C64.3001 170.9 53.0001 160 50.5001 158.4C51.1001 162.1 59.0001 175.8 46.1001 182.8C37.9001 187.2 26.6001 186.4 27.4001 198.6C29.4001 195.5 30.1001 192.9 34.3001 190.2C37.4001 188.2 42.8001 186.9 46.7001 187.8C46.4001 198.8 24.4001 202.3 17.8001 204.8C13.2001 206.5 8.9001 209.8 5.7001 213.6C4.0001 215.6 0.400098 221.6 0.100098 224.4C0.800098 223.8 0.400098 224.2 0.900098 223.3L3.2001 219.8C4.3001 218.3 5.4001 216.9 6.9001 215.5C10.6001 211.9 15.5001 209.2 20.6001 208.3Z" fill="url(#paint3_linear)"/>
<path d="M78.7002 253.7C78.2002 250.5 71.2002 242.9 68.4002 234.6C64.7002 223.4 75.8002 216.1 76.5002 214.7C71.4002 213.9 66.1002 216 63.7002 218.9C57.0002 227 63.3002 237.4 56.4002 245.6C55.1002 247.2 53.8002 248.4 52.1002 249.7C50.7002 250.7 47.6002 252.5 47.2002 253.2C54.9002 251.3 58.3002 248.5 63.3002 243.2C67.3002 244.9 77.9002 261.8 75.7002 269.5C73.4002 277.9 73.5002 275.3 69.3002 282.1C76.9002 280 83.9002 263.1 79.4002 254.8L79.0002 254.2L78.7002 253.7Z" fill="url(#paint4_linear)"/>
<path d="M60.8002 97.9L56.8002 99.5C55.0002 101 55.5002 101.3 52.9002 102.3C52.5002 101.9 52.8002 102.1 51.9002 101.8C50.4002 102.4 45.7002 108.7 44.9002 110C42.9002 113.3 41.2002 116.3 39.9002 120.4C38.1002 125.9 35.7002 134 39.4002 139.3C41.0002 141.6 41.6002 141.6 43.3002 143.4C42.1002 147.6 41.5002 148.7 42.3002 154C40.5002 153.3 37.7002 148.8 36.9002 147C35.4002 143.8 34.6002 140.4 34.5002 136.4C34.2002 125.5 39.0002 116.2 44.0002 107.3C45.8002 104.1 51.8002 92.6 53.2002 90.8C55.8002 87.4 59.0002 86 60.1002 84.7L70.2002 79.9C80.4002 75.5 85.6002 74.7 94.5002 66.7C95.3002 66 97.8002 63.3 98.3002 63C98.5002 66.9 95.3002 70.8 93.4002 72.7C92.4002 73.8 87.3002 78.8 85.7002 79.5C87.2002 79.1 91.0002 76.9 92.4002 75.9C106.3 66.3 107.6 53 102 37.4C99.5002 30.3 94.7002 23.7 94.6002 23.4C97.5002 29.6 98.9002 37.8 97.3002 45.6C94.8002 57.9 83.8002 68.5 73.5002 75C70.2002 77 59.9002 83.1 55.8002 83.8L55.6002 82.6L55.4002 79.2L62.6002 75.2C66.9002 71.9 71.1002 69.3 74.8002 64.9C78.6002 60.4 80.1002 56.8 81.9002 50.9C83.2002 46.6 83.7002 40.5 84.3002 39.1L84.8002 40.6C85.8002 44.8 85.3002 50.1 84.3002 54C82.8002 60.4 81.3002 61.3 79.1002 65.8C81.8002 64 87.3002 54.5 88.6002 50.4C94.6002 32.5 84.5002 14.4 71.4002 2.9C70.9002 2.2 68.9002 0.3 68.0002 0C70.5002 3.4 71.1002 3.7 73.3002 7.7C77.9002 16.1 80.6002 29.9 78.9002 39.6L78.5002 41C75.1002 33.3 74.7002 34.4 71.1002 29.5C70.1002 28.2 68.9002 27.6 68.0002 26.4C69.1002 29 71.3002 31.4 73.4002 37.4C76.5002 45.9 76.2002 56.6 71.0002 64.3C68.1002 68.6 62.8002 73.2 58.3002 75.9C51.2002 80.1 46.9002 79.6 40.1002 78.2C43.2002 81.5 47.0002 82.6 53.1002 82.7C52.9002 85.1 50.2002 88.7 49.0002 90.2C48.0002 91.5 47.2002 92.3 46.3002 93.5C45.5002 94.5 44.3002 96 43.3002 96.5C42.3002 93.5 42.7002 91.3 40.1002 86.3C38.7002 83.6 36.6002 79.8 33.0002 79.6C26.3002 79.4 20.7002 88 20.7002 95C22.2002 94.7 25.7002 91.9 27.1002 90.9C29.2002 89.4 30.8002 87.6 30.9002 84C32.2002 84.3 33.8002 86.4 34.5002 87.6C35.5002 89.4 35.9002 91.8 35.6002 94.2C35.2002 98.4 33.0002 102.2 31.2002 105.3C27.1002 112.4 22.7002 116.7 22.9002 127.6C23.0002 136.8 28.6002 143.9 33.0002 148.2C37.0002 152.2 46.6002 156.6 49.4002 162.1C49.5002 161.9 50.0002 162.5 49.4002 160.9C49.2002 160.3 49.0002 160 48.7002 159.7C47.3002 157.7 43.9002 155.6 43.1002 152.8C41.9002 148.4 45.4002 145.2 45.6002 143.6C45.8002 142.4 45.8002 140.7 45.8002 139.5C43.0002 136.9 39.8002 135.1 40.1002 128.3C40.8002 117.2 51.1002 101.3 60.8002 97.9Z" fill="#FEF297"/>
<path d="M51.8999 101.7C52.7999 102 52.4999 101.9 52.8999 102.2C55.4999 101.2 54.9999 101 56.7999 99.4L60.7999 97.8C67.9999 93.5 87.0999 91.5 88.9999 93.6C89.9999 94.6 85.1999 98.6 81.8999 99.8C76.6999 101.8 74.1999 100.7 68.9999 101.3C77.3999 105.3 88.3999 104.1 96.3999 99.9C104.2 95.7 108.5 90.1 113.3 83.1C105.8 89.9 86.9999 88 74.4999 89.3C72.3999 89.5 72.7999 89 70.4999 89.7C65.7999 91.3 53.9999 98.2 51.8999 101.7Z" fill="#FEF297"/>
<path d="M53.8003 111.8C56.9003 110.1 60.8003 107 65.7003 108C69.5003 108.7 72.9003 112.2 74.1003 116C69.9003 114.6 69.0003 113.8 63.6003 114.5C67.4003 114.6 72.0003 117 72.9003 120.3C73.6003 122.7 73.1003 124.7 76.0003 124.8C81.8003 125.1 87.1003 120.1 90.1003 115.9C91.6003 113.8 95.3003 108.6 95.8003 106.2C94.5003 107.2 93.5003 108.8 92.0003 110.1C86.7003 114.7 80.4003 115.4 74.7003 111.3C71.5003 109 70.2003 106.1 64.1003 106.2C59.6003 106.5 55.5003 109.6 53.8003 111.8Z" fill="#FEF689"/>
<path d="M77.8003 83.7C91.3003 83.6 103.6 83.3 111 75.1C113.9 71.9 117 67.2 118.2 61.5C118.9 58.3 119.2 55.6 119.2 52.3C119.2 50.5 119 49.3 118.9 47.5L118.2 43.4C118.2 43.3 118.1 43.2 118.1 43.1C118.1 43 118 42.9 118 42.8C116.9 56 116.7 61.9 106.5 71.7C101.9 76.1 93.2003 80.3 86.4003 81.7L77.8003 83.7Z" fill="#FEF689"/>
<path d="M52.8003 120.3C53.1003 121 52.6003 121 53.4003 120.7C61.2003 118.5 67.9003 122.6 65.8003 131.2C64.3003 131.2 62.4003 130.5 61.1003 129.8C59.0003 128.6 59.2003 128.3 58.1003 127.3C57.7003 126.9 58.0003 127.1 57.5003 126.8C58.6003 132.9 63.9003 139 71.3003 138C76.6003 137.3 83.1003 130.2 84.8003 126.2C83.3003 126.9 80.2003 131.2 76.7003 131.6C72.6003 132.1 71.0003 128 69.5003 125.2C67.2003 121 64.3003 115.9 57.3003 117.9L52.8003 120.3Z" fill="#FEF689"/>
<path d="M14.4002 105.3C14.9002 104.3 14.8002 103.3 15.3002 102.2C15.9002 101.1 16.4002 100.5 17.0002 99.4C19.7002 94.5 15.0002 93.5 18.9002 85.3C22.8002 76.8 39.9002 78.6 40.9002 63.7C40.0002 65.4 39.8002 66.7 38.5002 68.4C37.5002 69.7 36.3002 71.1 34.3002 71.6C34.9002 69.7 38.8002 62.7 37.1002 57.9C36.7002 56.6 37.0002 57.5 36.5002 56.9C37.0002 71.3 25.1002 74.2 20.4002 77.7C16.2002 80.9 12.1002 86.9 14.4002 93.6C15.1002 95.7 15.5002 95.1 14.7002 97.3C14.0002 99.3 13.3002 103.5 14.4002 105.3Z" fill="#FEF689"/>
<path d="M51.4999 139.8C53.3999 139.5 52.0999 139.6 52.3999 140.3C52.2999 145.3 57.6999 150 62.2999 150.7C68.6999 151.6 72.9999 146.8 75.1999 143.6C74.4999 144.1 74.1999 144.5 73.5999 145.1C68.0999 150.2 61.4999 147.5 59.5999 140.8C58.2999 136.4 59.7999 133.3 56.1999 130.7C52.1999 127.8 48.5999 131.6 45.9999 132.6C45.8999 128.7 46.2999 127.1 47.9999 124.7C48.9999 123.3 51.2999 121.3 53.3999 120.8C52.5999 121.1 53.0999 121.2 52.7999 120.4C51.0999 121 47.9999 123.7 46.9999 125.2C45.6999 127.3 44.8999 130.6 45.0999 133.6C46.9999 133.6 57.6999 130 56.3999 141.3C54.7999 141.1 53.4999 139.6 53.0999 137.7C52.1999 138.3 51.8999 138.8 51.4999 139.8Z" fill="#FEF689"/>
<path d="M52.4003 140.3C52.1003 139.6 53.4003 139.5 51.5003 139.8C50.5003 141.6 49.8003 143.2 49.6003 145.6C49.3003 148.7 49.9003 149.9 50.0003 152.6C48.2003 152.3 47.2003 151.5 45.8003 150.9C49.0003 157.1 57.5003 160.2 63.9003 157.5C64.2003 157.4 64.3003 157.3 64.5003 157.2C64.9003 156.9 64.8003 157 65.1003 156.7C61.6003 156.6 56.3003 157.2 53.2003 153.2C52.1003 151.7 51.3003 149.9 51.1003 147.5C51.0003 146.2 51.0003 144.9 51.1003 143.6L51.6003 141.1C52.1003 140.4 51.7003 140.8 52.4003 140.3Z" fill="#FEF689"/>
<path d="M21.7002 74.4C28.6002 73.3 34.3002 67.4 33.4002 59L32.8002 60.1C28.5002 70.3 23.4002 71.6 21.7002 74.4Z" fill="#FEF689"/>
<path d="M235.7 254C236.3 254 236.8 254.1 237.3 254.5C237.7 254.8 238 255.3 238.1 256C238.2 257.5 238.1 260.8 238.1 261.6C238.1 261.9 238 262 237.9 262.1C237.6 262.3 237.2 262.3 236.9 262.3C235 262.3 233.6 260.4 233.6 257.4C233.6 255.9 233.9 255 234.4 254.4C234.8 254.2 235.3 254 235.7 254ZM243.4 262.6C242.8 262.6 242.5 262.6 242.2 262.5C241.9 262.5 241.8 262.3 241.7 261.3C241.7 260.2 241.7 257.7 241.7 256.8C241.7 253.1 241.7 251 241.7 249.3C241.7 247.2 241.7 246.7 242 246.3C242 246.2 241.9 245.9 241.8 245.8C240.7 246.2 237.6 246.6 236 246.6C235.9 246.7 235.8 247.4 235.9 247.5C236.5 247.6 237 247.7 237.4 247.8C237.9 248 238 248.5 238 248.9C238.1 249.7 238.1 251.4 238.1 252.7C238.1 252.8 238 252.8 238 252.8H237.2C235.5 252.8 233.2 253.6 232.1 254.5C230.8 255.4 229.9 257.2 229.9 259.1C229.9 260.7 230.4 262.1 231.2 263.1C232 264 233 264.6 234.2 264.6C235.1 264.6 236.7 263.9 237.9 263.1C238 263.1 238 263.1 238 263.2C238 263.7 238 264.3 238.1 264.6C238.1 264.7 238.3 264.9 238.3 264.9C238.9 264.9 242.1 264.2 243.2 263.7C243.3 263.5 243.4 262.8 243.4 262.6ZM222.6 253.9C223.7 253.9 224.3 255.2 224.4 257C224.4 257.1 224.3 257.2 224.2 257.3C223.7 257.4 221.9 257.4 221.2 257.4C221.1 257.4 221 257.3 221 257.2C221 255.3 221.6 253.9 222.6 253.9ZM228 261.1C226.9 261.9 226 262.2 224.8 262.2C223.7 262.2 222.8 261.9 222.1 261.2C221.4 260.5 221.1 259.7 221 258.9C221 258.8 221.1 258.7 221.1 258.6C223.1 258.5 227.2 258.3 228 258C228.1 257.9 228.2 257.3 228.2 257.2C228.1 257.1 227.8 257 227.8 256.8C227.5 255.3 226.5 252.7 223.4 252.7C222.3 252.7 221 253.1 220 253.7C218.5 254.7 217.4 256.4 217.4 258.7C217.4 260.4 217.9 262.1 219.1 263.3C220 264.1 221.2 264.6 222.8 264.6C224.6 264.6 226.7 263.6 227.9 262.1C227.9 262 228.1 261.5 228 261.2C228.2 261.2 228 261.1 228 261.1ZM194.2 248.4C195 248.5 195.7 248.7 196.2 248.8C196.8 249 196.9 249.6 196.9 250.1C196.8 252.3 196.2 259.2 195.9 261.3C195.7 262.6 195.4 262.9 194.6 263.1C194.2 263.2 193.7 263.3 193.2 263.3C193.1 263.4 193.1 264.1 193.2 264.3C194.3 264.3 195.4 264.2 196.5 264.2C198.3 264.2 199.4 264.3 200.4 264.3C200.5 264.2 200.6 263.4 200.5 263.3C199.7 263.2 199.2 263.1 198.7 262.9C197.9 262.6 197.7 262.3 197.7 261.3C197.7 259.3 198 253.7 198.2 251.5C198.3 251.5 198.3 251.4 198.4 251.4C200.9 257.4 202.7 261.7 203.4 264C203.5 264 204.5 264.1 204.7 264C205.5 261.7 208.8 254.4 210.1 251.5H210.2C210.2 254.2 210.2 259.4 210.2 261.6C210.2 262.4 210.1 262.8 209.6 263C209.2 263.1 208.8 263.2 208.1 263.3C208 263.4 208 264.1 208.1 264.3C209.3 264.3 210.5 264.2 212.1 264.2C214.8 264.2 215.9 264.3 216.9 264.3C217 264.2 217.1 263.5 217 263.3C216.4 263.2 215.8 263.1 215.4 263C214.6 262.8 214.5 262.2 214.4 261.5C214.3 259.6 214 252 214.1 250C214.1 249.3 214.2 248.8 214.9 248.6C215.3 248.5 215.8 248.4 216.6 248.3C216.7 248.2 216.7 247.4 216.6 247.3C214.9 247.3 213.6 247.4 210.4 247.4C210.4 247.8 210.1 248.5 209.9 249.1C209.1 251.1 206.7 256.3 205.9 257.7C205.9 257.7 205.8 257.8 205.7 257.7C204.9 256.2 202.8 251.6 201.8 249.1C201.5 248.5 201.3 247.9 201.3 247.3C198.6 247.3 196.7 247.2 194.6 247.2C194.2 247.5 194.2 248.2 194.2 248.4ZM172 263.5C171.9 263.6 171.9 264.3 172 264.5C172.8 264.5 173.2 264.4 175.1 264.4C176.3 264.4 177.4 264.5 178.5 264.5C178.6 264.3 178.7 263.7 178.6 263.5C178.3 263.4 178 263.4 177.8 263.3C177.3 263.1 177.2 262.9 177.2 262.2C177.2 260.2 177.2 258 177.2 255.9C177.2 255.7 177.3 255.5 177.5 255.4C177.8 255.1 178.3 255 178.8 255C180.1 255 180.6 255.9 180.7 256.6C180.8 257.3 180.8 260.5 180.8 262.3C180.8 262.6 180.7 263.1 180.4 263.2C180.2 263.3 179.9 263.3 179.5 263.4C179.4 263.5 179.4 264.2 179.5 264.4C180.3 264.4 181 264.3 182.3 264.3C183.6 264.3 184.7 264.4 185.8 264.4C185.9 264.3 186 263.6 185.9 263.4C185.5 263.3 185.1 263.2 184.8 263C184.6 262.9 184.5 262.6 184.5 262.3V257.8C184.5 257.2 184.5 256.3 184.4 255.8C184.4 255.7 184.4 255.7 184.4 255.6C184.8 255.3 185.5 255.1 185.9 255.1C187.2 255.1 187.7 256 187.9 256.8C188 257.8 188 260.2 188 262.1C188 262.9 187.9 263.2 187.5 263.3C187.4 263.4 187.1 263.4 186.8 263.5C186.7 263.6 186.7 264.3 186.8 264.5C187.8 264.4 188.6 264.4 190 264.4C191.3 264.4 192.6 264.5 193.3 264.5C193.4 264.4 193.5 263.7 193.4 263.5C192.6 263.3 192.2 263.2 191.9 262.9C191.8 262.8 191.8 262.6 191.8 262.5C191.8 261.4 191.8 258.8 191.8 257.3C191.8 254.5 190.4 252.8 188.2 252.8C187.2 252.8 186 253.3 184.3 254.6C184.2 254.7 184.2 254.7 184.1 254.6C183.5 253.5 182.4 252.8 181.2 252.8C180.3 252.8 179.1 253.3 177.5 254.6C177.4 254.6 177.3 254.6 177.3 254.5C177.3 254 177.4 253 177.4 252.9C177.4 252.8 177.3 252.7 177.3 252.7C176.5 253.1 174.2 253.7 172.5 253.9C172.4 254 172.3 254.6 172.4 254.8C173 255.1 173.5 255.3 173.6 255.6C173.7 255.8 173.7 256 173.8 256.2C173.9 257.1 173.9 261.2 173.8 262.2C173.8 262.8 173.7 263.3 173.2 263.4C172.6 263.4 172.4 263.4 172 263.5ZM157.2 254.4C157.5 254.5 158 254.6 158.2 254.6C158.6 254.7 158.7 255 158.7 255.6C158.7 257 158.7 259.7 158.7 261.1C158.7 263.1 159.7 264.6 161.9 264.6C163.1 264.6 164.4 263.9 165.6 262.9C165.7 262.8 165.7 262.9 165.7 263C165.7 263.4 165.8 264.2 165.8 264.5C165.8 264.6 165.9 264.7 166 264.7C166.6 264.7 169.7 263.9 170.9 263.4C171 263.2 171 262.6 171 262.4C170.6 262.4 170.2 262.4 169.9 262.4C169.5 262.3 169.4 262 169.4 261.4V255.8C169.4 254.6 169.4 253.1 169.5 252.9C168.6 253 166.3 253.3 163.9 253.3C163.8 253.4 163.8 254 163.8 254.3C164.4 254.4 164.8 254.5 165.3 254.6C165.7 254.7 165.8 255.2 165.8 255.5C165.9 259 165.9 261 165.8 261.4C165.8 261.5 165.7 261.7 165.6 261.8C165.3 262 164.8 262.2 164.3 262.2C163.3 262.2 162.7 261.7 162.6 261.1C162.4 260.5 162.5 259.6 162.5 257.9C162.5 255.1 162.6 253.7 162.7 252.8C161.3 253.1 158.8 253.2 157.5 253.2C157.2 253.6 157.1 254.2 157.2 254.4ZM154.8 249.3C154.8 249.1 154.7 248.5 154.6 248.2C154.4 248.1 154 247.8 153.3 247.8C152.6 247.8 151.6 248.1 151.2 248.4C151 248.7 151 249.5 151.1 249.8C151.2 250.4 151.5 250.9 152 251.1C152.4 251.3 153.8 251.1 154.1 250.9C154.5 250.5 154.8 249.8 154.8 249.3ZM156.5 263.5L155.4 263.3C155.1 263.2 154.9 263 154.9 262.1C154.9 260.8 154.9 258.9 154.9 257.5C154.9 255.9 154.9 253.9 154.9 252.7C153.5 253.3 150.6 253.7 150 253.7C149.9 253.8 149.9 254.4 149.9 254.6C150.6 254.9 150.8 255 151 255.2C151.1 255.3 151.2 255.7 151.2 255.9C151.2 256.4 151.2 257.5 151.2 258.4C151.2 259.7 151.2 261.5 151.2 262.1C151.2 262.8 151.1 263.1 150.7 263.2C150.4 263.3 150.1 263.4 149.7 263.4C149.6 263.5 149.6 264.2 149.7 264.4C150.4 264.4 151.4 264.3 153 264.3C154.8 264.3 155.8 264.4 156.4 264.4C156.5 264.3 156.6 263.6 156.5 263.5ZM127.6 263.5C127.5 263.6 127.5 264.3 127.6 264.5C128.4 264.5 128.8 264.4 130.7 264.4C131.9 264.4 133 264.5 134.1 264.5C134.2 264.3 134.3 263.7 134.2 263.5C133.9 263.4 133.6 263.4 133.4 263.3C132.9 263.1 132.8 262.9 132.8 262.2C132.8 260.2 132.8 258 132.8 255.9C132.8 255.7 132.9 255.5 133.1 255.4C133.4 255.1 133.9 255 134.4 255C135.7 255 136.2 255.9 136.3 256.6C136.4 257.3 136.4 260.5 136.4 262.3C136.4 262.6 136.3 263.1 136 263.2C135.8 263.3 135.5 263.3 135.1 263.4C135 263.5 135 264.2 135.1 264.4C135.9 264.4 136.6 264.3 137.9 264.3C139.2 264.3 140.3 264.4 141.4 264.4C141.5 264.3 141.6 263.6 141.5 263.4C141.1 263.3 140.7 263.2 140.4 263C140.2 262.9 140.1 262.6 140.1 262.3V257.8C140.1 257.2 140.1 256.3 140 255.8C140 255.7 140 255.7 140 255.6C140.4 255.3 141.1 255.1 141.5 255.1C142.8 255.1 143.3 256 143.5 256.8C143.6 257.8 143.6 260.2 143.6 262.1C143.6 262.9 143.5 263.2 143.1 263.3C143 263.4 142.7 263.4 142.4 263.5C142.3 263.6 142.3 264.3 142.4 264.5C143.4 264.4 144.2 264.4 145.6 264.4C146.9 264.4 148.2 264.5 148.9 264.5C149 264.4 149.1 263.7 149 263.5C148.2 263.3 147.8 263.2 147.5 262.9C147.4 262.8 147.4 262.6 147.4 262.5C147.4 261.4 147.4 258.8 147.4 257.3C147.4 254.5 146 252.8 143.8 252.8C142.8 252.8 141.6 253.3 139.9 254.6C139.8 254.7 139.8 254.7 139.7 254.6C139.1 253.5 138.1 252.8 136.8 252.8C135.9 252.8 134.7 253.3 133.1 254.6C133 254.6 132.9 254.6 132.9 254.5C132.9 254 133 253 133 252.9C133 252.8 132.9 252.7 132.9 252.7C132.1 253.1 129.8 253.7 128.1 253.9C128 254 127.9 254.6 128 254.8C128.6 255.1 129.1 255.3 129.2 255.6C129.3 255.8 129.3 256 129.4 256.2C129.5 257.1 129.5 261.2 129.4 262.2C129.4 262.8 129.3 263.3 128.8 263.4C128.2 263.4 128 263.4 127.6 263.5ZM120.8 253.9C121.9 253.9 122.5 255.2 122.6 257C122.6 257.1 122.5 257.2 122.4 257.3C121.9 257.4 120.1 257.4 119.4 257.4C119.3 257.4 119.2 257.3 119.2 257.2C119.2 255.3 119.8 253.9 120.8 253.9ZM126.2 261.1C125.1 261.9 124.2 262.2 123 262.2C121.9 262.2 121 261.9 120.3 261.2C119.6 260.5 119.3 259.7 119.2 258.9C119.2 258.8 119.3 258.7 119.3 258.6C121.3 258.5 125.4 258.3 126.2 258C126.3 257.9 126.4 257.3 126.4 257.2C126.3 257.1 126 257 126 256.8C125.8 255.3 124.7 252.7 121.6 252.7C120.5 252.7 119.2 253.1 118.2 253.7C116.7 254.7 115.6 256.4 115.6 258.7C115.6 260.4 116.1 262.1 117.3 263.3C118.2 264.1 119.4 264.6 121 264.6C122.8 264.6 124.9 263.6 126.1 262.1C126.1 262 126.3 261.5 126.2 261.2C126.4 261.2 126.2 261.1 126.2 261.1ZM113.3 252.8C112.7 252.8 112.1 253.1 111.7 253.4C111.1 253.9 110.6 254.4 110.1 255C110.1 255.1 110 255.1 110 254.9C110 254.5 110.1 253.1 110.1 252.8C110.1 252.7 110 252.6 109.9 252.6C108.8 253.2 106.3 253.7 105.2 253.8C105.1 253.9 105 254.4 105.1 254.6C106.4 255 106.5 255.4 106.5 255.7C106.6 256.1 106.6 257 106.6 258C106.6 259.7 106.6 261.7 106.5 262.3C106.5 262.9 106.3 263.1 106.1 263.2C105.8 263.3 105.4 263.4 105 263.4C104.9 263.5 104.9 264.2 105 264.4C105.8 264.4 106.9 264.3 108.2 264.3C110.3 264.3 111.6 264.4 112.2 264.4C112.3 264.3 112.4 263.6 112.3 263.4C111.7 263.3 111.3 263.3 110.9 263.1C110.3 263 110.2 262.7 110.1 261.9C110.1 261.6 110 257.7 110.1 256.3C110.1 256.1 110.2 255.9 110.3 255.9C110.5 255.7 110.8 255.6 111.1 255.6C111.9 255.6 112.7 256.1 113.3 256.8C113.4 256.8 113.6 256.8 113.7 256.7C114.2 256.1 114.9 254.6 114.9 254.2C114.9 254.1 115 253.7 114.9 253.6C114.6 253.1 114 252.8 113.3 252.8ZM96.5002 257.8C96.8002 257.9 97.2002 257.9 97.8002 257.9C99.0002 257.9 100.3 257.6 101.4 256.9C102.7 256.1 103.8 254.6 103.8 252.4C103.8 250.5 102.9 249.2 101.9 248.5C100.7 247.6 99.1002 247.5 98.2002 247.5C96.1002 247.5 94.8002 247.5 92.7002 247.6C91.2002 247.6 89.7002 247.5 88.9002 247.5C88.8002 247.6 88.8002 248.3 88.9002 248.5C89.4002 248.6 89.9002 248.6 90.3002 248.7C91.0002 248.9 91.2002 249.3 91.2002 250.2C91.3002 251.1 91.3002 252.6 91.3002 255.5C91.3002 258.9 91.3002 260.7 91.2002 261.8C91.2002 262.6 91.1002 263.1 90.4002 263.3C89.9002 263.4 89.5002 263.5 88.9002 263.5C88.8002 263.6 88.8002 264.3 88.9002 264.5C90.4002 264.5 91.8002 264.4 93.3002 264.4C94.9002 264.4 96.7002 264.5 97.8002 264.5C98.0002 264.3 98.0002 263.7 97.9002 263.5C97.1002 263.4 96.6002 263.4 96.1002 263.2C95.4002 263 95.3002 262.5 95.3002 261.8C95.2002 260.3 95.2002 256.8 95.2002 255.3C95.2002 251.6 95.2002 250 95.3002 249.1C95.3002 248.9 95.4002 248.7 95.5002 248.7C95.7002 248.6 96.1002 248.6 96.3002 248.6C98.5002 248.6 99.8002 250.4 99.8002 252.9C99.8002 254.7 99.3002 255.7 98.5002 256.2C98.1002 256.5 97.7002 256.6 97.1002 256.6C96.7002 256.6 96.4002 256.6 96.3002 256.5C96.2002 256.6 96.2002 256.7 96.2002 256.8C96.0002 257.1 96.2002 257.6 96.5002 257.8Z" fill="url(#paint5_linear)"/>
</g>
<defs>
<linearGradient id="paint0_linear" x1="158.964" y1="112.317" x2="158.964" y2="237.043" gradientUnits="userSpaceOnUse">
<stop stop-color="#F7EF8D"/>
<stop offset="0.5083" stop-color="#F58B34"/>
<stop offset="0.8631" stop-color="#E23D40"/>
</linearGradient>
<linearGradient id="paint1_linear" x1="141.266" y1="112.517" x2="141.266" y2="235.426" gradientUnits="userSpaceOnUse">
<stop stop-color="#F7EF8D"/>
<stop offset="0.5083" stop-color="#F58B34"/>
<stop offset="1" stop-color="#E23D40"/>
</linearGradient>
<linearGradient id="paint2_linear" x1="127.91" y1="119.34" x2="127.91" y2="180.021" gradientUnits="userSpaceOnUse">
<stop stop-color="#F7EF8D"/>
<stop offset="0.5083" stop-color="#F58B34"/>
<stop offset="0.8631" stop-color="#E23D40"/>
</linearGradient>
<linearGradient id="paint3_linear" x1="41.3103" y1="158.381" x2="41.3103" y2="236" gradientUnits="userSpaceOnUse">
<stop stop-color="#F7EF8D"/>
<stop offset="0.5083" stop-color="#F58B34"/>
<stop offset="0.8631" stop-color="#E23D40"/>
</linearGradient>
<linearGradient id="paint4_linear" x1="64.1681" y1="185.5" x2="64.1681" y2="281.992" gradientUnits="userSpaceOnUse">
<stop stop-color="#F7EF8D"/>
<stop offset="0.3977" stop-color="#F58B34"/>
<stop offset="0.6685" stop-color="#E23D40"/>
</linearGradient>
<linearGradient id="paint5_linear" x1="166.059" y1="245.813" x2="166.059" y2="264.827" gradientUnits="userSpaceOnUse">
<stop stop-color="#F7EF8D"/>
<stop offset="0.5083" stop-color="#F58B34"/>
<stop offset="0.8631" stop-color="#E23D40"/>
</linearGradient>
<clipPath id="clip0">
<rect width="243.4" height="282" fill="white"/>
</clipPath>
</defs>
</svg>
