<svg width="32" height="32" viewBox="0 0 32 32" fill="none" xmlns="http://www.w3.org/2000/svg">
<g clip-path="url(#clip0)">
<path d="M1.02667 20C0.721333 20 0.446667 19.7893 0.377333 19.48C0.126667 18.3707 0 17.2 0 16C0 7.17733 7.17733 0 16 0C21.0667 0 25.8787 2.44 28.8707 6.52667C29.088 6.824 29.024 7.24133 28.7267 7.45867C28.4293 7.676 28.0107 7.612 27.7947 7.31467C25.0533 3.56933 20.6427 1.33333 16 1.33333C7.91333 1.33333 1.33333 7.91333 1.33333 16C1.33333 17.1027 1.44933 18.1747 1.67733 19.1867C1.75867 19.5467 1.53333 19.9027 1.17333 19.984C1.124 19.9947 1.07467 20 1.02667 20Z" fill="white"/>
<path d="M16.0005 32C10.9338 32 6.12181 29.56 3.12981 25.4733C2.91248 25.176 2.97648 24.7587 3.27381 24.5413C3.56981 24.3227 3.98848 24.3867 4.20581 24.6853C6.94714 28.4307 11.3578 30.6667 16.0005 30.6667C24.0871 30.6667 30.6671 24.0867 30.6671 16C30.6671 14.8827 30.5485 13.812 30.3125 12.8213C30.2271 12.4627 30.4485 12.1027 30.8071 12.0187C31.1685 11.932 31.5258 12.1547 31.6098 12.5133C31.8685 13.6053 32.0005 14.7787 32.0005 16C32.0005 24.8227 24.8231 32 16.0005 32Z" fill="white"/>
<path d="M3.4004 29.3333C3.03773 29.3333 2.7404 29.0427 2.73373 28.6773L2.66707 24.6773C2.6644 24.4987 2.7324 24.3267 2.85907 24.1987C2.98307 24.072 3.15507 24 3.33373 24H7.33373C7.70173 24 8.0004 24.2987 8.0004 24.6667C8.0004 25.0347 7.70173 25.3333 7.33373 25.3333H4.01107L4.06707 28.656C4.07373 29.024 3.7804 29.3267 3.4124 29.3333C3.4084 29.3333 3.4044 29.3333 3.4004 29.3333Z" fill="white"/>
<path d="M28.6667 8.00002H24.6667C24.2987 8.00002 24 7.70135 24 7.33335C24 6.96535 24.2987 6.66669 24.6667 6.66669H28V3.33335C28 2.96535 28.2987 2.66669 28.6667 2.66669C29.0347 2.66669 29.3333 2.96535 29.3333 3.33335V7.33335C29.3333 7.70135 29.0347 8.00002 28.6667 8.00002Z" fill="white"/>
<path d="M16 24C12.692 24 10 21.308 10 18C10 14.4533 15.2773 8.47601 15.5013 8.22401C15.7533 7.93868 16.2453 7.93868 16.4973 8.22401C16.7227 8.47601 22 14.4533 22 18C22 21.308 19.308 24 16 24ZM16 9.68934C14.348 11.6613 11.3333 15.7307 11.3333 18C11.3333 20.5733 13.4267 22.6667 16 22.6667C18.5733 22.6667 20.6667 20.5733 20.6667 18C20.6667 15.7307 17.652 11.6613 16 9.68934Z" fill="white"/>
</g>
<defs>
<clipPath id="clip0">
<rect width="32" height="32" fill="white"/>
</clipPath>
</defs>
</svg>
