<svg width="30" height="32" viewBox="0 0 30 32" fill="none" xmlns="http://www.w3.org/2000/svg">
<g clip-path="url(#clip0)">
<path d="M26.8753 22.6666C26.7153 22.6666 26.5553 22.6013 26.4328 22.472L21.4328 17.1386C21.1891 16.8786 21.1891 16.456 21.4328 16.196C21.6766 15.936 22.0728 15.936 22.3166 16.196L27.3166 21.5293C27.5603 21.7893 27.5603 22.212 27.3166 22.472C27.1953 22.6013 27.0353 22.6666 26.8753 22.6666Z" fill="white"/>
<path d="M28.1253 18.6667C27.9653 18.6667 27.8053 18.6013 27.6828 18.472L25.1828 15.8053C24.9391 15.5453 24.9391 15.1227 25.1828 14.8627C25.4266 14.6027 25.8228 14.6027 26.0666 14.8627L28.5666 17.5293C28.8103 17.7893 28.8103 18.212 28.5666 18.472C28.4453 18.6013 28.2853 18.6667 28.1253 18.6667Z" fill="white"/>
<path d="M16.5623 31.1133C16.0823 31.1133 15.601 30.9186 15.236 30.5293L13.8785 29.0813C13.1473 28.3013 13.1473 27.0333 13.8785 26.2533L22.3698 17.196C22.6135 16.936 23.0098 16.936 23.2535 17.196C23.4973 17.456 23.4973 17.8786 23.2535 18.1386L14.7623 27.196C14.5185 27.456 14.5185 27.8786 14.7623 28.1386L16.1198 29.5866C16.3635 29.8466 16.7598 29.8466 17.0035 29.5866L25.4948 20.5293C25.7385 20.2693 26.1348 20.2693 26.3785 20.5293C26.6223 20.7893 26.6223 21.212 26.3785 21.472L17.8873 30.5293C17.5235 30.9186 17.0423 31.1133 16.5623 31.1133Z" fill="white"/>
<path d="M24.3753 20C24.2153 20 24.0553 19.9346 23.9328 19.8053C23.6891 19.5453 23.6891 19.1226 23.9328 18.8626L26.4328 16.196C26.6766 15.936 27.0728 15.936 27.3166 16.196C27.5603 16.456 27.5603 16.8786 27.3166 17.1386L24.8166 19.8053C24.6953 19.9346 24.5353 20 24.3753 20Z" fill="white"/>
<path d="M13.1253 32C12.9653 32 12.8053 31.9347 12.6828 31.8053C12.4391 31.5453 12.4391 31.1227 12.6828 30.8627L14.5578 28.8627C14.8016 28.6027 15.1978 28.6027 15.4416 28.8627C15.6853 29.1227 15.6853 29.5453 15.4416 29.8053L13.5666 31.8053C13.4453 31.9347 13.2853 32 13.1253 32Z" fill="white"/>
<path d="M10.2887 29.2793C10.2662 29.2793 10.2462 29.2779 10.225 29.2766C5.10875 28.7273 1.25 24.1659 1.25 18.6659C1.25 11.8259 10.3912 0.695261 10.7812 0.224595C11.0175 -0.0634055 11.4825 -0.0620721 11.7187 0.224595C11.9525 0.505928 17.45 7.18726 19.9975 13.3859C20.135 13.7233 19.9925 14.1166 19.6762 14.2646C19.3612 14.4113 18.9912 14.2593 18.8525 13.9219C16.8062 8.9446 12.6462 3.46193 11.25 1.69259C9.3725 4.07393 2.5 13.1659 2.5 18.6659C2.5 23.4779 5.875 27.4699 10.35 27.9486C10.6937 27.9859 10.945 28.3126 10.9087 28.6779C10.8775 29.0233 10.605 29.2793 10.2887 29.2793Z" fill="white"/>
</g>
<defs>
<clipPath id="clip0">
<rect width="30" height="32" fill="white"/>
</clipPath>
</defs>
</svg>
