<svg width="32" height="32" viewBox="0 0 32 32" fill="none" xmlns="http://www.w3.org/2000/svg">
<path d="M10.1337 7.25007C13.3375 5.0976 17.3972 4.91567 20.7217 6.58327L19.8693 8.08787C19.7241 8.34413 19.8142 8.6696 20.0705 8.8148C20.3269 8.96007 20.6523 8.8698 20.7974 8.6136C20.8322 8.55213 22.9237 4.8602 22.9437 4.825C24.5273 5.31153 26.1333 4.1202 26.1333 2.46667C26.1333 1.10653 25.0268 0 23.6667 0C21.4135 0 20.3435 2.78913 22.0162 4.29807L21.2479 5.65427C17.5727 3.78907 13.0795 3.98593 9.53887 6.3646C9.2944 6.52887 9.22933 6.86027 9.3936 7.10473C9.55787 7.34927 9.88927 7.41427 10.1337 7.25007ZM23.6667 1.06667C24.4387 1.06667 25.0667 1.69473 25.0667 2.46667C25.0667 3.2386 24.4387 3.86667 23.6667 3.86667C22.8947 3.86667 22.2667 3.2386 22.2667 2.46667C22.2667 1.69473 22.8947 1.06667 23.6667 1.06667ZM9.63453 25.6989C9.7248 25.7583 9.82647 25.7867 9.92707 25.7867C10.4541 25.7867 10.6625 25.0983 10.2206 24.8077C5.19487 21.5029 3.9548 14.6791 7.45173 9.8444L10.5418 12.3165C10.6401 12.3951 10.7578 12.4333 10.8747 12.4333C11.3754 12.4333 11.6023 11.7988 11.2081 11.4835L5.2132 6.6876C6.01973 5.053 4.821 3.13333 3 3.13333C1.63987 3.13333 0.533333 4.23987 0.533333 5.6C0.533333 7.66807 2.93953 8.8164 4.5462 7.51993L6.6182 9.17753C3.92373 12.8835 3.6562 17.8608 5.97147 21.8368L4.19973 22.9801C2.64547 21.4435 0 22.5507 0 24.7333C0 26.0935 1.10653 27.2 2.46667 27.2C4.17747 27.2 5.37867 25.4866 4.77933 23.8757L6.55027 22.7328C7.37247 23.8854 8.4114 24.8947 9.63453 25.6989ZM1.6 5.6C1.6 4.82807 2.228 4.2 3 4.2C3.772 4.2 4.4 4.82807 4.4 5.6C4.4 6.37193 3.772 7 3 7C2.228 7 1.6 6.37193 1.6 5.6ZM2.46667 26.1333C1.69467 26.1333 1.06667 25.5053 1.06667 24.7333C1.06667 23.9614 1.69467 23.3333 2.46667 23.3333C3.23867 23.3333 3.86667 23.9614 3.86667 24.7333C3.86667 25.5053 3.23867 26.1333 2.46667 26.1333ZM29.5333 25.1333C28.1732 25.1333 27.0667 26.2399 27.0667 27.6C27.0667 28.9601 28.1732 30.0667 29.5333 30.0667C30.8935 30.0667 32 28.9601 32 27.6C32 26.2399 30.8935 25.1333 29.5333 25.1333ZM29.5333 29C28.7613 29 28.1333 28.3719 28.1333 27.6C28.1333 26.8281 28.7613 26.2 29.5333 26.2C30.3053 26.2 30.9333 26.8281 30.9333 27.6C30.9333 28.3719 30.3053 29 29.5333 29ZM26.762 24.5221L25.1414 23.133C27.3757 20.2761 28.0834 16.6473 27.2815 13.2937L28.3871 12.974C28.7386 13.511 29.3451 13.8667 30.0333 13.8667C31.1177 13.8667 32 12.9844 32 11.9C32 10.8156 31.1177 9.93333 30.0333 9.93333C28.937 9.93333 28.0366 10.8387 28.0681 11.9559L26.9858 12.2688C26.4723 10.7553 25.6462 9.35287 24.5421 8.1518C24.3427 7.93493 24.0053 7.92073 23.7885 8.12007C23.5717 8.3194 23.5575 8.6568 23.7568 8.87367C25.5473 10.8215 26.5333 13.3523 26.5333 16C26.5333 22.9785 19.8112 28.0841 13.0489 26.1139L13.8871 23.7027C13.9838 23.4245 13.8367 23.1205 13.5584 23.0238C13.2801 22.9271 12.9762 23.0742 12.8795 23.3525C12.7035 23.8585 11.4249 27.5367 11.2401 28.0686C10.1197 28.0271 9.2 28.9269 9.2 30.0333C9.2 31.1177 10.0823 32 11.1667 32C12.2511 32 13.1333 31.1177 13.1333 30.0333C13.1333 29.3513 12.7842 28.7494 12.2554 28.3965L12.6982 27.1228C16.8156 28.3437 21.3733 27.2085 24.4464 23.9422L26.0678 25.332C26.2915 25.5238 26.6282 25.4977 26.8199 25.2741C27.0115 25.0505 26.9857 24.7138 26.762 24.5221ZM30.0333 11C30.5296 11 30.9333 11.4037 30.9333 11.9C30.9333 12.3963 30.5296 12.8 30.0333 12.8C29.5371 12.8 29.1333 12.3963 29.1333 11.9C29.1333 11.4037 29.5371 11 30.0333 11ZM11.1667 30.9333C10.6704 30.9333 10.2667 30.5296 10.2667 30.0333C10.2667 29.5371 10.6704 29.1333 11.1667 29.1333C11.6629 29.1333 12.0667 29.5371 12.0667 30.0333C12.0667 30.5296 11.6629 30.9333 11.1667 30.9333ZM20 21.8667C22.3894 21.8667 24.3333 19.9227 24.3333 17.5333C24.3333 15.1439 22.3894 13.2 20 13.2C17.6106 13.2 15.6667 15.1439 15.6667 17.5333C15.6667 19.9227 17.6106 21.8667 20 21.8667ZM20 14.2667C21.8013 14.2667 23.2667 15.7321 23.2667 17.5333C23.2667 19.3346 21.8013 20.8 20 20.8C18.1987 20.8 16.7333 19.3346 16.7333 17.5333C16.7333 15.7321 18.1987 14.2667 20 14.2667ZM8.26667 17.3333C8.26667 18.767 9.433 19.9333 10.8667 19.9333C12.3003 19.9333 13.4667 18.767 13.4667 17.3333C13.4667 15.8997 12.3003 14.7333 10.8667 14.7333C9.433 14.7333 8.26667 15.8997 8.26667 17.3333ZM12.4 17.3333C12.4 18.1788 11.7121 18.8667 10.8667 18.8667C10.0212 18.8667 9.33333 18.1788 9.33333 17.3333C9.33333 16.4879 10.0212 15.8 10.8667 15.8C11.7121 15.8 12.4 16.4879 12.4 17.3333ZM16.3333 9.33333C16.3333 9.92153 15.8548 10.4 15.2667 10.4C14.6785 10.4 14.2 9.92153 14.2 9.33333C14.2 8.74513 14.6785 8.26667 15.2667 8.26667C15.8548 8.26667 16.3333 8.74513 16.3333 9.33333Z" fill="white"/>
</svg>
